<?xml version="1.0" encoding="UTF-8"?>
<svg id="Layer_1" xmlns="http://www.w3.org/2000/svg" version="1.1" viewBox="0 0 479 140.2738953">
  <!-- Generator: Adobe Illustrator 29.1.0, SVG Export Plug-In . SVG Version: 2.1.0 Build 142)  -->
  <defs>
    <style>
      .st0 {
        fill: #020202;
      }

      .st1 {
        fill: #fff;
      }
    </style>
  </defs>
  <g>
    <path class="st1" d="M11.4324903,3.8562703l106.4013338-.1390352c3.8110504.2273242,7.4102936,2.7412372,8.6146088,6.3853917,1.4412003,35.8037224.1853714,71.9677467.6353912,107.9049721-.2273254,3.8110504-2.7412338,7.4102936-6.3853912,8.6146088-35.8037186,1.4411926-71.9677429.1853714-107.9049759.6353912-3.8110485-.2273254-7.4102931-2.7412338-8.6146078-6.3853912-1.428916-35.9640198-.2101045-72.2892456-.6167352-108.386322.5607216-4.374342,3.5981376-7.6496186,7.8703763-8.6296153ZM52.5559311,32.7392349l-.9930801.7394943c.9689674,2.9681892-2.9585114,12.7662849,2.2313347,12.2688904,4.4240761-.4240036-.1414146-10.8127556-1.2382545-13.0083847ZM68.0686569,32.737587c-.0625153,2.1467628-1.9876938,11.7653503-.5405884,12.783287.6234894.4385796,1.8549194.3076897,2.5400391-.0299416,2.4699173-1.2171974.3282776-11.1210976-1.9994507-12.7533455ZM83.06884,40.2400398c.4346542,2.083725-3.5183334,8.8827057.2416,8.5277328,2.1216888-.2003098,1.2209549-4.938633.9030838-6.4303322-.1028824-.4828148-.4736404-2.1400528-1.1446838-2.0974007ZM41.0589523,42.2378464c-3.2488861,1.6350975-7.0666428,12.7346649-1.6980171,13.0024719,3.5808754.178627,1.2755623-6.231987,1.1853027-8.2321548-.0781746-1.7323647.0759392-3.1168747.5127144-4.7703171ZM66.9165192,49.8425751c-3.0209541.905571-8.1935806,15.8387833.8901062,15.4258575,6.4109802-.2914276,6.7593689-17.718895-.8901062-15.4258575ZM52.413826,50.3268394c-3.4387589,1.0511436-6.699234,18.3075066,4.2960815,15.8028679,6.7998466-1.5489426,2.1670723-17.7784958-4.2960815-15.8028679ZM93.0016327,58.1652451c1.4395065-.8735428,1.2412567-6.55233-.1854858-7.9253197l-2.2273178,7.2124977c.1819992.7808113,1.8237076,1.0703087,2.4128036.712822ZM75.181015,66.1192474c7.1422653,3.2291183,12.5237808-6.8662109,7.8909912-12.138855-5.3535843-6.0929832-11.7581253,7.5810928-7.8909912,12.138855ZM39.2040596,59.3854332c-1.1223335.9260216-2.670208,5.287693-2.9151382,6.8260078-2.0891953,13.121315,12.4899178,13.3675003,12.3123398,3.7784042-.0677757-3.6598129-4.7441597-14.4435616-9.3972015-10.6044121ZM88.4246979,60.8174553c-4.6754913.7320709-7.2067261,10.9495354-1.033432,11.274456,6.8584518.3609848,5.6074677-11.9906425,1.033432-11.274456ZM63.4534149,67.8772125c-8.4417648,1.021286-21.7696991,11.010376-20.2750473,20.4874268.5985794,3.7953873,5.2773438,9.2958069,9.1778793,9.8268585,8.8968391,1.2112885,12.0064163-7.1459808,19.9632416-7.9482269,5.3088379-.5352631,14.8861008,1.6169815,18.474762-3.5252075,5.2103806-7.4659424-3.8491745-12.7470856-9.5415649-15.419693-5.6499405-2.6526871-11.5042343-4.1827316-17.7992706-3.4211578Z"/>
    <path class="st0" d="M63.4534149,67.8772125c6.2950439-.7615738,12.1493378.7684708,17.7992783,3.4211578,5.6923904,2.6726151,14.7519455,7.9537582,9.5415649,15.419693-3.5886688,5.142189-13.1659241,2.9899445-18.4747696,3.5252075-7.9568253.8022461-11.0664062,9.1595154-19.9632416,7.9482269-3.9005356-.5310516-8.5792999-6.0314713-9.1778793-9.8268585-1.4946518-9.4770508,11.8332825-19.4661407,20.2750473-20.4874268Z"/>
    <path class="st0" d="M39.2040596,59.3854332c4.6530457-3.8391533,9.3294258,6.9445915,9.3972015,10.6044121.177578,9.5891037-14.4015388,9.3429108-12.3123398-3.7784042.2449341-1.5383148,1.7928047-5.8999863,2.9151382-6.8260078Z"/>
    <path class="st0" d="M52.413826,50.3268394c6.4631577-1.9756241,11.095932,14.2539253,4.2960815,15.8028679-10.9953194,2.5046387-7.7348442-14.7517281-4.2960815-15.8028679Z"/>
    <path class="st0" d="M66.9165192,49.8425751c7.6494751-2.2930336,7.3010788,15.1344299.8901062,15.4258575-9.083683.4129257-3.9110603-14.5202866-.8901062-15.4258575Z"/>
    <path class="st0" d="M75.181015,66.1192474c-3.8671341-4.557766,2.5374069-18.2318382,7.8909912-12.138855,4.6327972,5.272644-.7487183,15.3679733-7.8909912,12.138855Z"/>
    <path class="st0" d="M88.4246979,60.8174553c4.574028-.7161865,5.8250198,11.6354485-1.033432,11.274456-6.1732864-.3249207-3.6420593-10.5423889,1.033432-11.274456Z"/>
    <path class="st0" d="M52.5559311,32.7392349c1.0968399,2.1956253,5.6623306,12.5843773,1.2382545,13.0083809-5.189846.4973984-1.2623672-9.3007011-2.2313347-12.2688866l.9930801-.7394943Z"/>
    <path class="st0" d="M41.0589523,42.2378464c-.4367752,1.6534424-.590889,3.0379486-.5127144,4.7703171.0902596,2.0001678,2.3955727,8.4107819-1.1853027,8.2321548-5.3686256-.267807-1.550869-11.3673744,1.6980171-13.0024719Z"/>
    <path class="st0" d="M68.0686569,32.737587c2.3277206,1.6322479,4.4693604,11.5361443,1.9994431,12.7533417-.6851196.3376312-1.9165497.4685211-2.5400391.0299416-1.4471054-1.0179367.4780731-10.6365242.540596-12.7832832Z"/>
    <path class="st0" d="M83.06884,40.2400398c.671051-.0426521,1.0418015,1.6145859,1.1446915,2.0974007.3178635,1.4916992,1.218605,6.2300224-.9030838,6.4303322-3.7599335.3549728.1930542-6.4440079-.2416077-8.5277328Z"/>
    <path class="st0" d="M93.0016327,58.1652451c-.5890961.3574867-2.2308044.0679893-2.4128036-.712822l2.2273178-7.2125015c1.4267426,1.3729897,1.6249924,7.0517769.1854858,7.9253235Z"/>
  </g>
  <g>
    <path class="st1" d="M172.6655273,51.3165894c-1.9204102-.2875977-3.9726562-.4316406-6.15625-.4316406-2.1845703,0-4.3085938.144043-6.371582.4316406,1.2958984,2.2084961,2.831543,4.0087891,4.6079102,5.4003906,1.7749023,1.3925781,4.0195312,2.7719727,6.7319336,4.1396484,2.7114258,1.3681641,4.9194336,2.6279297,6.6240234,3.7802734,1.703125,1.1518555,3.5874023,3.0488281,5.6518555,5.6879883,2.0634766,2.6401367,3.359375,5.3999023,3.8881836,8.2797852-2.3041992,2.9770508-5.3530273,5.6035156-9.144043,7.8842773-3.7924805,2.2792969-7.6806641,3.8032227-11.6640625,4.5717773-2.6889648-.2407227-6.0839844-.996582-10.1879883-2.2680664-4.1040039-1.2724609-7.1889648-1.9077148-9.2519531-1.9077148-2.0644531,0-4.1289062.6479492-6.1918945,1.9438477.8637695-2.4482422,2.2792969-5.5205078,4.2480469-9.2158203h.5756836c3.0712891,0,5.9638672.4799805,8.6762695,1.4399414,2.7109375.9604492,5.1835938,1.9204102,7.4160156,2.8798828,2.2319336.9594727,4.0317383,1.4399414,5.3999023,1.4399414,1.3676758,0,2.3632812-.0966797,2.987793-.2880859,0-3.1679688-.984375-5.7836914-2.9516602-7.8476562-1.0566406-1.1040039-1.956543-1.9555664-2.7001953-2.5561523-.7446289-.5996094-1.8842773-1.4277344-3.4199219-2.4838867l-1.2241211-.8642578c-3.2646484-2.2553711-5.9521484-4.5473633-8.0639648-6.8759766-2.112793-2.3276367-3.6484375-5.1953125-4.6079102-8.6040039,1.5356445-3.4077148,3.0473633-6.359375,4.5356445-8.855957,4.5600586-1.1035156,9.2880859-1.6557617,14.184082-1.6557617h3.1679688c4.1279297,0,8.855957.5756836,14.184082,1.7275391-.7680664,3.168457-1.7041016,6.0244141-2.8081055,8.5683594-4.0317383.2880859-7.1523438.4316406-9.3598633.4316406.4321289-1.1035156.8393555-2.6875,1.2241211-4.7519531Z"/>
    <path class="st1" d="M235.3051758,46.9967651c.1914062,3.1206055.2880859,7.6679688.2880859,13.644043s-.3847656,12.3481445-1.1518555,19.1157227c-4.9931641,3.2167969-10.96875,4.8242188-17.9282227,4.8242188-9.2641602,0-16.7524414-1.6074219-22.4638672-4.8242188-.6245117-5.1835938-.9360352-10.2114258-.9360352-15.0839844,0-4.8710938.3598633-10.7636719,1.0800781-17.6757812h19.3676758c-1.9204102,10.4165039-2.9282227,20.4243164-3.0239258,30.0239258,2.0161133,1.824707,4.9199219,2.7358398,8.7119141,2.7358398,3.7915039,0,6.6962891-.6713867,8.7124023-2.015625.0952148-1.5839844.1435547-3.8632812.1435547-6.840332,0-7.5834961-.6723633-15.5517578-2.015625-23.9038086h9.2158203Z"/>
    <path class="st1" d="M285.7041016,50.3087769c0-1.2958984-.1923828-2.3994141-.5761719-3.3120117h20.5205078c1.7275391,4.6079102,3.0117188,10.2485352,3.8515625,16.9199219.8398438,6.6723633,1.2841797,13.0322266,1.3320312,19.0800781h-16.6318359c-.3359375-8.6401367-1.7529297-16.9672852-4.2480469-24.9838867-4.1757812,8.1606445-6.4326172,16.487793-6.7675781,24.9838867h-14.1123047c-1.2490234-9.4072266-3.6484375-17.7592773-7.199707-25.0561523-2.5922852,6.0966797-3.8881836,11.7607422-3.8881836,16.9921875,0,2.8325195.3354492,5.5205078,1.0078125,8.0639648h-17.4956055c-.3364258-1.9677734-.5043945-4.5717773-.5043945-7.8120117,0-3.2397461.4794922-6.4912109,1.4404297-9.7558594,3.4072266-1.0083008,6.6835938-2.6640625,9.8276367-4.9682617,3.1435547-2.3037109,5.4599609-4.8237305,6.9482422-7.5600586-1.2490234-2.0629883-2.5683594-4.0317383-3.9599609-5.9038086h22.7514648c1.8242188,4.9443359,3.1923828,10.3208008,4.1044922,16.1279297,2.3994141-4.4638672,3.5996094-8.7353516,3.5996094-12.815918Z"/>
    <path class="st1" d="M361.4472656,50.3087769c0-1.2958984-.1923828-2.3994141-.5761719-3.3120117h20.5205078c1.7275391,4.6079102,3.0117188,10.2485352,3.8515625,16.9199219.8398438,6.6723633,1.2841797,13.0322266,1.3320312,19.0800781h-16.6318359c-.3359375-8.6401367-1.7529297-16.9672852-4.2480469-24.9838867-4.1757812,8.1606445-6.4326172,16.487793-6.7675781,24.9838867h-14.1123047c-1.2490234-9.4072266-3.6484375-17.7592773-7.2001953-25.0561523-2.5917969,6.0966797-3.8876953,11.7607422-3.8876953,16.9921875,0,2.8325195.3349609,5.5205078,1.0078125,8.0639648h-17.4960938c-.3359375-1.9677734-.5039062-4.5717773-.5039062-7.8120117,0-3.2397461.4794922-6.4912109,1.4404297-9.7558594,3.4072266-1.0083008,6.6835938-2.6640625,9.828125-4.9682617,3.1425781-2.3037109,5.4589844-4.8237305,6.9472656-7.5600586-1.2480469-2.0629883-2.5683594-4.0317383-3.9599609-5.9038086h22.7519531c1.8242188,4.9443359,3.1923828,10.3208008,4.1044922,16.1279297,2.3994141-4.4638672,3.5996094-8.7353516,3.5996094-12.815918Z"/>
    <path class="st1" d="M414.4384766,46.9967651v1.9438477c0,12.6723633-.7919922,24.0244141-2.3759766,34.0561523h-17.2792969c.9111328-4.4155273,1.3671875-9.5151367,1.3671875-15.2998047,0-5.7836914-.3847656-12.6835938-1.1513672-20.7001953h19.4394531Z"/>
    <path class="st1" d="M452.3828125,51.6769409c-1.2490234,7.5844727-1.8720703,13.7763672-1.8720703,18.5756836,0,4.800293.1914062,9.0483398.5761719,12.7441406h-15.6962891c-1.6328125-7.6318359-2.4482422-15.8398438-2.4482422-24.6240234,0-1.4873047.046875-3.7192383.1445312-6.6958008-4.0810547,1.2001953-6.5771484,3.9599609-7.4882812,8.2797852l-7.1279297-.4321289,2.5917969-12.527832h47.8798828c-.9609375,5.2807617-2.0644531,9.6005859-3.3115234,12.9599609l-7.2724609-.4321289c.1914062-.7670898.2880859-1.5356445.2880859-2.3037109,0-1.8720703-.5761719-3.2636719-1.7285156-4.1762695-1.1513672-.9111328-2.6630859-1.3676758-4.5351562-1.3676758Z"/>
  </g>
</svg>