<?xml version="1.0" encoding="UTF-8"?>
<svg id="Layer_1" xmlns="http://www.w3.org/2000/svg" version="1.1" viewBox="0 0 269.9364907 332.2735051">
  <!-- Generator: Adobe Illustrator 29.1.0, SVG Export Plug-In . SVG Version: 2.1.0 Build 142)  -->
  <g>
    <path d="M182.8515474,159.4341865l-13.9979274.4969107c.1110858-3.2743795,2.4751328-3.4068482,5.0132373-4.251248l.3829901-.8706671c-.3580416-1.459029-.3420116-2.560193-1.0621166-3.9608576-.7578602-1.4741016-5.2726048-6.8500585-6.7112811-7.2890403l-29.6271375-4.6276246c-.3935875,3.5775491-.308935,8.6471778-1.2286294,12.0216623-.17961.6590137-5.2412023,9.2432896-5.7411943,9.7588054-.9592538.9890368-7.2788576,1.0028011-8.7792273.7231148-.6143982-.114531-.9529004-.1571658-1.1772222-.8238882-1.0409981-3.0940226,1.9453017-2.1230239,3.1508778-3.7055309,2.7454174-3.6037892-2.4441913-14.5106153-2.2245471-18.9739484-.4372637-.4585119-6.9094998,2.4021338-7.6434059,2.9753427-1.0506206.8205752-1.3883509,3.6905314-3.0922374,5.0391721-1.1394836.901911-8.6449064,4.462563-8.6967781,1.7411196l1.9344238-2.7483975-3.2474739,1.4633425-2.7451162-1.7051665c1.3084415-1.4476055,1.3424597-4.4042389,3.4924739-4.7720158.4343454-.5980775-2.6753953-.5752331-2.3511753-3.1744838.0730577-.5856987,4.3316825-9.7879315,4.8382392-10.4458692,1.2063839-1.5669034,5.7010978-3.9423104,7.5182704-5.6156893,4.4033558-4.0549159,6.8248772-10.1366108,12.7693966-12.7677078,3.6147468.0140753,8.9573141,2.9214574,12.2960152,2.7407881,6.1555648-.3331001,14.9852753-4.9163806,21.3221953-5.6221341.5840774-.0650497,1.142049-.2491176,1.7263718-.0076349l14.2284032,9.5523122,9.652575,20.0993336v24.75Z"/>
    <polygon points="246.3538565 253.5011535 140.0701558 315.9944088 33.8564729 257.743877 35.7062655 257.8941974 140.0659191 307.991201 246.3538565 253.5011535"/>
    <polygon points="249.6058329 75.0004316 248.1013563 75.2552194 139.9446472 34.1094 32.4612567 75.0962898 30.6044965 75.2440827 139.941321 26.1061153 249.6058329 75.0004316"/>
    <path d="M143.3516879,160.4291909l2.4231819-3.673159c-1.8277926-2.2332336-4.1122126-4.4412096-5.5110225-6.9841454-.8878248-1.6140015-4.1892304-9.0647062-2.4069506-10.3416764l8.6661139,1.5825132c1.4518387.5038588,1.5638741,8.6325587,1.9593619,10.5405982.4051445,1.954628,1.9438074,4.0947795,1.7839746,5.4900661-.3793395,3.3115073-4.1866898,3.6394616-6.9146592,3.3858033Z"/>
    <path d="M167.7122985,145.080017c.9222766.7003184,5.9678303,7.4278191,5.4141711,8.3706547-2.3064652.8485861-6.3341408,5.247102-8.2634707,5.7866558-1.637553.4579558-5.4948941-.3030504-4.4886937-2.7783844,3.3899515.001325,4.3581015-1.4420859,4.911523-4.6709042l-7.4338694-8.8491488c2.4339735.9259626,7.9493319.6900287,9.8603397,2.1411271Z"/>
  </g>
  <g>
    <path d="M45.4638672,216.9650269c-.1875,1.4770508-.4765625,2.4648438-.8671875,2.9643555-1.640625,0-3.578125-.2929688-5.8125-.8793945s-3.859375-1.3359375-4.875-2.2480469c-.015625-.4775391-.0234375-1.1616211-.0234375-2.0522461,0-4.2353516.359375-8.2529297,1.078125-12.0537109.0625-.347168.328125-.7871094.796875-1.3198242.46875-.5317383.890625-.7978516,1.265625-.7978516.359375,2.3891602,1.0039062,4.7890625,1.9335938,7.199707s1.984375,4.4467773,3.1640625,6.1083984,2.2929688,2.6875,3.3398438,3.0786133ZM48.8857422,173.701355c-1.234375,1.4550781-1.8515625,3.2202148-1.8515625,5.2939453,0,2.0742188.4101562,4.1484375,1.2304688,6.222168.8203125,2.0742188,1.7773438,3.8393555,2.8710938,5.2939453,1.09375,1.4555664,1.9414062,2.6118164,2.5429688,3.4697266.6015625.8583984,1.28125,1.8896484,2.0390625,3.0947266.7578125,1.2055664,1.3554688,2.2861328,1.7929688,3.2416992,1.078125,2.3242188,1.6171875,4.3603516,1.6171875,6.1083984,0,1.7485352-.2617188,3.371582-.7851562,4.8706055-.5234375,1.4985352-1.265625,2.8618164-2.2265625,4.0883789-.9609375,1.2270508-2.1875,2.2426758-3.6796875,3.0458984-1.4921875.8037109-3.1367188,1.2592773-4.9335938,1.3686523.5-.9990234.75-2.046875.75-3.144043,0-1.0966797-.1640625-2.215332-.4921875-3.3554688s-.828125-2.3618164-1.5-3.6650391c-1.078125-2.1064453-2.2851562-4.1699219-3.6210938-6.1899414s-2.265625-3.4638672-2.7890625-4.3330078c-.5234375-.8681641-1.1132812-1.965332-1.7695312-3.2900391-1.28125-2.5625-1.921875-5.1362305-1.921875-7.7211914,0-2.5844727.5703125-4.984375,1.7109375-7.199707s2.6835938-3.9633789,4.6289062-5.2451172c1.9453125-1.28125,4.0742188-1.9326172,6.3867188-1.9545898ZM56.6904297,193.3786011c0-2.1064453-.2734375-4.2788086-.8203125-6.515625-1.078125-4.3657227-2.875-7.8842773-5.390625-10.5556641.03125-.390625.296875-.8574219.796875-1.4008789.5-.5424805.9140625-.8144531,1.2421875-.8144531,1.140625,0,2.4726562.3154297,3.9960938.9448242,1.5234375.6303711,2.7304688,1.2382812,3.6210938,1.824707.078125.6513672.1171875,1.7866211.1171875,3.4042969,0,1.6181641-.109375,3.6381836-.328125,6.0595703-.21875,2.421875-.484375,4.3383789-.796875,5.75-.09375.3256836-.4257812.6245117-.9960938.8959961s-1.0507812.4072266-1.4414062.4072266Z"/>
    <path d="M94.1875,208.3644409c-.453125,3.2143555-1.546875,5.8964844-3.28125,8.046875-1.90625,2.3452148-4.546875,3.5180664-7.921875,3.5180664-6.015625,0-9.984375-2.1386719-11.90625-6.4174805-1.078125-2.3671875-1.6171875-5.4296875-1.6171875-9.1870117,0-2.4760742.359375-6.7978516,1.078125-12.9663086.71875-6.1679688,1.078125-10.9243164,1.078125-14.269043,0-.3041992.25-.7382812.75-1.3032227.5-.5644531.9296875-.847168,1.2890625-.847168h11.1796875c-2.4375,15.7680664-3.65625,26.3881836-3.65625,31.8613281,0,5.234375,1.8515625,7.8515625,5.5546875,7.8515625,1.4375,0,2.8359375-.5810547,4.1953125-1.7431641,1.359375-1.1616211,2.4453125-2.6762695,3.2578125-4.5444336ZM92.59375,206.5724487c0-6.515625-.2539062-12.0703125-.7617188-16.6635742-.5078125-4.59375-1.4414062-8.8662109-2.8007812-12.8193359,0-.3041992.25-.7382812.75-1.3032227.5-.5644531.9296875-.847168,1.2890625-.847168h7.921875c-1.828125,11.5112305-3.28125,21.328125-4.359375,29.4506836-.046875.3256836-.3085938.7709961-.7851562,1.3354492-.4765625.5654297-.8945312.847168-1.2539062.847168Z"/>
    <path d="M109.7236328,195.7238159c.078125,5.4301758.2226562,9.578125.4335938,12.4448242.2109375,2.8671875.6679688,5.8535156,1.3710938,8.9589844,0,.2827148-.2539062.7119141-.7617188,1.2871094-.5078125.5756836-.9492188.8632812-1.3242188.8632812h-7.4765625c1.546875-5.1254883,2.7578125-9.2792969,3.6328125-12.4609375s1.5703125-6.1738281,2.0859375-8.9755859c0-.2817383.25-.7055664.75-1.2705078.5-.5644531.9296875-.847168,1.2890625-.847168ZM121.2548828,217.5841675c-.109375.3256836-.3515625.6894531-.7265625,1.0913086s-.671875.6025391-.890625.6025391h-3.7265625c-.65625-5.4082031-1.5078125-11.0981445-2.5546875-17.0708008s-2.0859375-10.8920898-3.1171875-14.7578125c.0625-.4995117.2695312-2.0253906.6210938-4.5776367.3515625-2.5517578.5976562-4.4897461.7382812-5.8149414.046875-.3037109.3125-.7329102.796875-1.2871094.484375-.5537109.8984375-.8305664,1.2421875-.8305664h6.8203125c1.078125,8.6875,1.9726562,14.5571289,2.6835938,17.6083984.7109375,3.0517578,1.3632812,5.4897461,1.9570312,7.3139648-1.5,6.2333984-2.78125,12.1411133-3.84375,17.7226562ZM137.3330078,219.2780151h-10.3359375c.09375-5.3427734.140625-10.7832031.140625-16.3217773,0-5.5380859-.1953125-11.8256836-.5859375-18.862793.53125-1.5415039,1.2734375-3.887207,2.2265625-7.0366211.109375-.347168.390625-.7871094.84375-1.3193359s.8515625-.7983398,1.1953125-.7983398h7.171875c-.109375,2.8666992-.1640625,6.0488281-.1640625,9.5454102,0,10.9462891.5234375,21.8271484,1.5703125,32.6430664,0,.2827148-.25.7119141-.75,1.2871094-.5.5756836-.9375.8632812-1.3125.8632812Z"/>
    <path d="M151.5566406,195.7238159c.078125,5.4301758.2226562,9.578125.4335938,12.4448242.2109375,2.8671875.6679688,5.8535156,1.3710938,8.9589844,0,.2827148-.2539062.7119141-.7617188,1.2871094-.5078125.5756836-.9492188.8632812-1.3242188.8632812h-7.4765625c1.546875-5.1254883,2.7578125-9.2792969,3.6328125-12.4609375s1.5703125-6.1738281,2.0859375-8.9755859c0-.2817383.25-.7055664.75-1.2705078.5-.5644531.9296875-.847168,1.2890625-.847168ZM163.0878906,217.5841675c-.109375.3256836-.3515625.6894531-.7265625,1.0913086s-.671875.6025391-.890625.6025391h-3.7265625c-.65625-5.4082031-1.5078125-11.0981445-2.5546875-17.0708008s-2.0859375-10.8920898-3.1171875-14.7578125c.0625-.4995117.2695312-2.0253906.6210938-4.5776367.3515625-2.5517578.5976562-4.4897461.7382812-5.8149414.046875-.3037109.3125-.7329102.796875-1.2871094.484375-.5537109.8984375-.8305664,1.2421875-.8305664h6.8203125c1.078125,8.6875,1.9726562,14.5571289,2.6835938,17.6083984.7109375,3.0517578,1.3632812,5.4897461,1.9570312,7.3139648-1.5,6.2333984-2.78125,12.1411133-3.84375,17.7226562ZM179.1660156,219.2780151h-10.3359375c.09375-5.3427734.140625-10.7832031.140625-16.3217773,0-5.5380859-.1953125-11.8256836-.5859375-18.862793.53125-1.5415039,1.2734375-3.887207,2.2265625-7.0366211.109375-.347168.390625-.7871094.84375-1.3193359s.8515625-.7983398,1.1953125-.7983398h7.171875c-.109375,2.8666992-.1640625,6.0488281-.1640625,9.5454102,0,10.9462891.5234375,21.8271484,1.5703125,32.6430664,0,.2827148-.25.7119141-.75,1.2871094-.5.5756836-.9375.8632812-1.3125.8632812Z"/>
    <path d="M198.5688477,219.2780151h-10.8984375c2.15625-12.9663086,3.6796875-27.0400391,4.5703125-42.2211914,0-.2822266.2539062-.7055664.7617188-1.2705078.5078125-.5644531.9414062-.847168,1.3007812-.847168h10.8984375c-2.171875,12.8579102-3.703125,26.9208984-4.59375,42.1884766,0,.2827148-.25.7119141-.75,1.2871094-.5.5756836-.9296875.8632812-1.2890625.8632812Z"/>
    <path d="M210.5424805,195.3004761c.125-2.5410156.421875-5.8803711.890625-10.0175781.46875-4.1376953.8203125-6.8139648,1.0546875-8.0307617.109375-.434082.3789062-.9282227.8085938-1.4824219.4296875-.5537109.7851562-.8305664,1.0664062-.8305664h7.125c-1.59375,2.6499023-2.8164062,5.0932617-3.6679688,7.3300781-.8515625,2.2373047-1.671875,4.4038086-2.4609375,6.4995117-.7890625,2.0961914-1.3945312,3.6870117-1.8164062,4.7724609-.09375.2392578-.5273438.5922852-1.3007812,1.059082-.7734375.4672852-1.3398438.7001953-1.6992188.7001953ZM228.1206055,219.2780151h-10.921875c2.296875-11.5327148,3.9296875-25.6064453,4.8984375-42.2211914,0-.2822266.2539062-.7055664.7617188-1.2705078.5078125-.5644531.9335938-.847168,1.2773438-.847168h10.453125c-2.015625,11.793457-3.484375,25.8564453-4.40625,42.1884766,0,.2827148-.25.7119141-.75,1.2871094-.5.5756836-.9375.8632812-1.3125.8632812ZM239.0893555,195.3331909c0-2.9755859-.3398438-6.2763672-1.0195312-9.9038086-.6796875-3.6269531-1.4101562-6.2548828-2.1914062-7.8837891.09375-.9990234.328125-1.8676758.703125-2.6064453h7.2890625c-.5,6.5375977-1.1640625,12.6191406-1.9921875,18.2436523-.0625.3256836-.4414062.765625-1.1367188,1.3193359-.6953125.5541992-1.2460938.8310547-1.6523438.8310547Z"/>
  </g>
</svg>